<svg width="420" height="297" viewBox="0 0 420 297" fill="none" xmlns="http://www.w3.org/2000/svg">
<g clip-path="url(#clip0_101_2)">
<rect width="297" height="420" transform="matrix(0 1 -1 0 420 0)" fill="white"/>
<path d="M10.7022 187C10.1591 187 9.72468 186.837 9.39884 186.511C9.073 186.077 8.96439 185.588 9.073 185.045L22.5954 74.911C22.704 74.3679 22.9212 73.9335 23.247 73.6076C23.6815 73.1732 24.1703 72.956 24.7133 72.956H53.2243C62.022 72.956 68.919 75.3998 73.9152 80.2874C79.02 85.0664 81.5724 91.5289 81.5724 99.6749C81.5724 100.761 81.4638 102.39 81.2466 104.562L74.8927 155.394C73.698 164.951 69.8422 172.609 63.3254 178.365C56.9172 184.122 48.8798 187 39.2132 187H10.7022ZM33.6739 166.472C33.4567 167.015 33.6739 167.287 34.3256 167.287L41.4941 167.124C44.318 167.015 46.7618 165.766 48.8255 163.377C50.9978 160.987 52.3554 157.837 52.8985 153.927L58.7636 106.029C58.8722 105.377 58.9265 104.454 58.9265 103.259C58.9265 100.001 58.1662 97.4483 56.6457 95.6018C55.2337 93.6468 53.17 92.6693 50.4547 92.6693H43.4491C42.9061 92.6693 42.6345 92.9408 42.6345 93.4839L33.6739 166.472ZM85.9573 187C85.4142 187 84.9797 186.837 84.6539 186.511C84.3281 186.077 84.2194 185.588 84.3281 185.045L97.8504 74.911C97.959 74.3679 98.1763 73.9335 98.5021 73.6076C98.9366 73.1732 99.4253 72.956 99.9684 72.956H118.378C119.573 72.956 120.17 73.6076 120.17 74.911L106.648 185.045C106.539 185.588 106.268 186.077 105.834 186.511C105.399 186.837 104.91 187 104.367 187H85.9573ZM150.092 188.303C141.403 188.303 134.56 185.968 129.564 181.298C124.568 176.627 122.07 170.274 122.07 162.236C122.07 161.259 122.178 159.684 122.395 157.511L129.075 102.444C130.161 93.1037 133.908 85.6637 140.317 80.1244C146.833 74.4766 154.871 71.6526 164.429 71.6526C173.009 71.6526 179.798 74.0421 184.794 78.8211C189.899 83.4915 192.451 89.8453 192.451 97.8827C192.451 98.8602 192.342 100.435 192.125 102.607L191.473 108.798C191.365 109.341 191.093 109.83 190.659 110.265C190.224 110.59 189.736 110.753 189.193 110.753H170.783C170.24 110.753 169.805 110.59 169.479 110.265C169.153 109.83 169.045 109.341 169.153 108.798L169.968 102.282C170.077 101.847 170.131 101.195 170.131 100.327C170.131 97.6112 169.371 95.4389 167.85 93.8097C166.438 92.1805 164.483 91.3659 161.985 91.3659C159.27 91.3659 156.934 92.3978 154.979 94.4614C153.024 96.4165 151.83 99.0232 151.395 102.282L144.552 157.674C144.227 160.933 144.77 163.594 146.182 165.657C147.594 167.613 149.657 168.59 152.373 168.59C155.197 168.59 157.586 167.613 159.541 165.657C161.496 163.594 162.691 160.933 163.125 157.674L164.755 144.641C164.755 144.098 164.537 143.826 164.103 143.826H157.097C156.554 143.826 156.12 143.663 155.794 143.337C155.468 142.903 155.36 142.414 155.468 141.871L157.26 127.371C157.26 126.828 157.477 126.394 157.912 126.068C158.346 125.633 158.835 125.416 159.378 125.416H187.4C188.595 125.416 189.193 126.068 189.193 127.371L185.445 157.511C184.359 166.852 180.558 174.347 174.041 179.994C167.524 185.534 159.541 188.303 150.092 188.303ZM223.915 188.303C215.226 188.303 208.383 185.968 203.387 181.298C198.391 176.627 195.893 170.274 195.893 162.236C195.893 161.259 196.001 159.684 196.218 157.511L202.898 102.444C203.984 93.1037 207.732 85.6637 214.14 80.1244C220.656 74.4766 228.694 71.6526 238.252 71.6526C246.832 71.6526 253.621 74.0421 258.617 78.8211C263.722 83.4915 266.274 89.8453 266.274 97.8827C266.274 98.8602 266.165 100.435 265.948 102.607L265.297 108.798C265.188 109.341 264.916 109.83 264.482 110.265C264.048 110.59 263.559 110.753 263.016 110.753H244.606C244.063 110.753 243.628 110.59 243.302 110.265C242.977 109.83 242.868 109.341 242.977 108.798L243.791 102.282C243.9 101.847 243.954 101.195 243.954 100.327C243.954 97.6112 243.194 95.4389 241.673 93.8097C240.261 92.1805 238.306 91.3659 235.808 91.3659C233.093 91.3659 230.758 92.3978 228.802 94.4614C226.847 96.4165 225.653 99.0232 225.218 102.282L218.376 157.674C218.05 160.933 218.593 163.594 220.005 165.657C221.417 167.613 223.48 168.59 226.196 168.59C229.02 168.59 231.409 167.613 233.364 165.657C235.319 163.594 236.514 160.933 236.948 157.674L238.578 144.641C238.578 144.098 238.36 143.826 237.926 143.826H230.92C230.377 143.826 229.943 143.663 229.617 143.337C229.291 142.903 229.183 142.414 229.291 141.871L231.083 127.371C231.083 126.828 231.301 126.394 231.735 126.068C232.17 125.633 232.658 125.416 233.201 125.416H261.224C262.418 125.416 263.016 126.068 263.016 127.371L259.269 157.511C258.182 166.852 254.381 174.347 247.864 179.994C241.347 185.534 233.364 188.303 223.915 188.303ZM337.816 90.7143C337.708 91.2573 337.436 91.7461 337.002 92.1805C336.676 92.5064 336.241 92.6693 335.698 92.6693H302.626C302.083 92.6693 301.811 92.9408 301.811 93.4839L298.553 119.225C298.553 119.768 298.77 120.04 299.204 120.04H318.266C318.809 120.04 319.243 120.257 319.569 120.692C319.895 121.017 320.004 121.452 319.895 121.995L317.94 137.798C317.832 138.341 317.56 138.83 317.126 139.264C316.8 139.59 316.365 139.753 315.822 139.753H296.923C296.272 139.753 295.946 140.025 295.946 140.568L292.85 166.472C292.633 167.015 292.85 167.287 293.502 167.287H326.412C326.955 167.287 327.389 167.504 327.715 167.938C328.15 168.264 328.313 168.699 328.204 169.242L326.249 185.045C326.14 185.588 325.869 186.077 325.434 186.511C325.109 186.837 324.674 187 324.131 187H269.879C269.336 187 268.901 186.837 268.575 186.511C268.25 186.077 268.141 185.588 268.25 185.045L281.772 74.911C281.88 74.3679 282.098 73.9335 282.424 73.6076C282.858 73.1732 283.347 72.956 283.89 72.956H338.142C338.685 72.956 339.12 73.1732 339.446 73.6076C339.771 73.9335 339.88 74.3679 339.771 74.911L337.816 90.7143ZM380.795 187C379.709 187 379.058 186.457 378.84 185.371L372.161 140.405C371.943 139.97 371.672 139.753 371.346 139.753H366.133C365.481 139.753 365.155 140.025 365.155 140.568L359.779 185.045C359.67 185.588 359.399 186.077 358.964 186.511C358.53 186.837 358.041 187 357.498 187H339.088C338.545 187 338.11 186.837 337.785 186.511C337.459 186.077 337.35 185.588 337.459 185.045L350.981 74.911C351.09 74.3679 351.307 73.9335 351.633 73.6076C352.067 73.1732 352.556 72.956 353.099 72.956H385.031C392.852 72.956 399.097 75.5627 403.767 80.7761C408.438 85.881 410.773 92.7236 410.773 101.304C410.773 103.911 410.664 105.92 410.447 107.332C409.687 113.632 407.786 119.28 404.745 124.276C401.812 129.163 398.065 132.965 393.503 135.68C393.286 135.789 393.123 135.952 393.014 136.169C392.906 136.278 392.906 136.44 393.014 136.658L401.649 184.719V185.045C401.649 185.588 401.432 186.077 400.998 186.511C400.672 186.837 400.237 187 399.694 187H380.795ZM371.835 92.6693C371.292 92.6693 371.02 92.9408 371.02 93.4839L367.599 121.343C367.382 121.886 367.599 122.158 368.251 122.158H375.256C378.949 122.158 382.044 120.529 384.543 117.27C387.041 114.012 388.29 109.722 388.29 104.4C388.29 100.815 387.421 97.9913 385.683 95.9277C384.054 93.7554 381.827 92.6693 379.003 92.6693H371.835Z" fill="black"/>
<path d="M18.2131 242.191C15.4747 242.191 13.3067 241.392 11.7093 239.795C10.1118 238.152 9.3131 235.984 9.3131 233.291C9.3131 232.561 9.33592 232.013 9.38156 231.648L12.8731 203.715C13.2382 200.52 14.4706 197.965 16.5701 196.048C18.6696 194.131 21.2255 193.172 24.2378 193.172C26.9763 193.172 29.1442 193.971 30.7417 195.568C32.3848 197.166 33.2063 199.311 33.2063 202.004C33.2063 202.369 33.1607 202.962 33.0694 203.784L32.7271 206.865C32.6358 207.321 32.3848 207.549 31.974 207.549H31.2894C30.833 207.549 30.6504 207.321 30.7417 206.865L31.084 203.647C31.1296 203.327 31.1524 202.848 31.1524 202.209C31.1524 200.018 30.5135 198.284 29.2355 197.006C27.9576 195.728 26.2004 195.089 23.9639 195.089C21.545 195.089 19.4911 195.888 17.8024 197.485C16.1593 199.037 15.178 201.091 14.8585 203.647L11.367 231.716C11.3213 232.036 11.2985 232.492 11.2985 233.086C11.2985 235.276 11.9375 237.033 13.2154 238.357C14.4934 239.635 16.2278 240.274 18.4185 240.274C20.8832 240.274 22.9598 239.498 24.6486 237.946C26.3373 236.349 27.3414 234.272 27.6609 231.716L29.0301 220.831C29.0301 220.648 28.9388 220.557 28.7563 220.557H21.9101C21.7275 220.557 21.5678 220.489 21.4309 220.352C21.3396 220.215 21.3168 220.055 21.3624 219.872L21.4309 219.393C21.4309 219.211 21.4993 219.051 21.6362 218.914C21.7732 218.777 21.9557 218.709 22.1839 218.709H30.6047C31.0612 218.709 31.2437 218.937 31.1524 219.393L29.6463 231.648C29.2812 234.843 28.0488 237.399 25.9493 239.316C23.8498 241.232 21.2711 242.191 18.2131 242.191ZM155.393 194.268C155.575 193.902 155.849 193.72 156.214 193.72H156.899C157.127 193.72 157.287 193.788 157.378 193.925C157.515 194.062 157.561 194.222 157.515 194.405L151.764 240.959C151.764 241.141 151.696 241.301 151.559 241.438C151.422 241.575 151.239 241.643 151.011 241.643H150.395C150.167 241.643 149.984 241.575 149.847 241.438C149.756 241.301 149.733 241.141 149.779 240.959L154.913 199.471C154.913 199.334 154.868 199.265 154.776 199.265C154.685 199.265 154.617 199.311 154.571 199.402L144.439 218.572C144.256 218.937 143.982 219.119 143.617 219.119H143.549C143.184 219.119 142.978 218.937 142.933 218.572L137.387 199.471C137.341 199.379 137.273 199.334 137.182 199.334C137.09 199.334 137.045 199.402 137.045 199.539L131.91 240.959C131.91 241.141 131.842 241.301 131.705 241.438C131.568 241.575 131.385 241.643 131.157 241.643H130.541C130.313 241.643 130.13 241.575 129.993 241.438C129.902 241.301 129.879 241.141 129.925 240.959L135.676 194.405C135.676 194.222 135.744 194.062 135.881 193.925C136.018 193.788 136.2 193.72 136.429 193.72H137.113C137.524 193.72 137.752 193.902 137.798 194.268L143.823 215.217C143.868 215.308 143.937 215.354 144.028 215.354C144.119 215.354 144.188 215.308 144.233 215.217L155.393 194.268ZM271.794 216.723C271.566 216.814 271.566 216.929 271.794 217.065C273.391 217.841 274.601 219.028 275.422 220.625C276.244 222.223 276.655 224.163 276.655 226.445C276.655 226.947 276.609 227.745 276.518 228.841C276.016 232.857 274.646 236.007 272.41 238.289C270.174 240.525 267.321 241.643 263.852 241.643H255.158C254.929 241.643 254.747 241.575 254.61 241.438C254.519 241.301 254.496 241.141 254.541 240.959L260.292 194.405C260.292 194.222 260.361 194.062 260.498 193.925C260.635 193.788 260.817 193.72 261.045 193.72H269.603C272.707 193.72 275.103 194.587 276.792 196.321C278.48 198.01 279.325 200.429 279.325 203.578C279.325 204.035 279.279 204.811 279.188 205.906C278.868 208.553 278.07 210.813 276.792 212.684C275.514 214.51 273.848 215.856 271.794 216.723ZM262.346 195.637C262.3 195.637 262.232 195.66 262.141 195.705C262.095 195.751 262.072 195.819 262.072 195.911L259.676 215.628C259.63 215.673 259.63 215.742 259.676 215.833C259.722 215.879 259.79 215.902 259.881 215.902H266.865C269.694 215.902 272.022 215.034 273.848 213.3C275.673 211.52 276.792 209.078 277.202 205.975C277.294 205.062 277.339 204.4 277.339 203.989C277.339 201.342 276.632 199.288 275.217 197.828C273.848 196.367 271.885 195.637 269.329 195.637H262.346ZM263.921 239.658C266.842 239.658 269.215 238.699 271.041 236.782C272.912 234.866 274.076 232.196 274.532 228.772C274.624 227.768 274.669 227.038 274.669 226.582C274.669 223.752 273.962 221.584 272.547 220.078C271.178 218.526 269.238 217.75 266.728 217.75H259.676C259.539 217.75 259.425 217.841 259.334 218.024L256.732 239.384C256.732 239.567 256.824 239.658 257.006 239.658H263.921ZM397.617 194.405C397.708 193.948 397.959 193.72 398.37 193.72H398.986C399.214 193.72 399.374 193.788 399.465 193.925C399.602 194.062 399.648 194.222 399.602 194.405L393.851 240.959C393.851 241.141 393.783 241.301 393.646 241.438C393.509 241.575 393.349 241.643 393.167 241.643H392.482C392.071 241.643 391.866 241.415 391.866 240.959L394.604 218.845C394.604 218.663 394.536 218.572 394.399 218.572H379.543C379.36 218.572 379.269 218.663 379.269 218.845L376.53 240.959C376.53 241.141 376.462 241.301 376.325 241.438C376.188 241.575 376.006 241.643 375.777 241.643H375.161C374.933 241.643 374.75 241.575 374.613 241.438C374.522 241.301 374.499 241.141 374.545 240.959L380.296 194.405C380.296 194.222 380.364 194.062 380.501 193.925C380.638 193.788 380.821 193.72 381.049 193.72H381.665C381.893 193.72 382.053 193.788 382.144 193.925C382.281 194.062 382.327 194.222 382.281 194.405L379.543 216.449C379.543 216.632 379.634 216.723 379.817 216.723H394.604C394.787 216.723 394.878 216.632 394.878 216.449L397.617 194.405Z" fill="black"/>
</g>
<defs>
<clipPath id="clip0_101_2">
<rect width="297" height="420" fill="white" transform="matrix(0 1 -1 0 420 0)"/>
</clipPath>
</defs>
</svg>
